<mxfile host="app.diagrams.net" modified="2021-05-21T10:14:28.966Z" agent="5.0 (Windows NT 10.0; Win64; x64) AppleWebKit/537.36 (KHTML, like Gecko) Chrome/90.0.4430.212 Safari/537.36" etag="lHHKhEXuFNjSKr_AlltE" version="14.6.13" type="github">
  <diagram id="PuOBSgyeB_reGD1bi1CX" name="Page-1">
    <mxGraphModel dx="496" dy="281" grid="1" gridSize="10" guides="1" tooltips="1" connect="1" arrows="1" fold="1" page="1" pageScale="1" pageWidth="827" pageHeight="1169" math="0" shadow="0">
      <root>
        <mxCell id="0" />
        <mxCell id="1" parent="0" />
        <mxCell id="FCGXPuL1XxX262zVFA1C-1" style="edgeStyle=orthogonalEdgeStyle;rounded=0;orthogonalLoop=1;jettySize=auto;html=1;entryX=0.5;entryY=0;entryDx=0;entryDy=0;" edge="1" parent="1" source="FCGXPuL1XxX262zVFA1C-2" target="FCGXPuL1XxX262zVFA1C-6">
          <mxGeometry relative="1" as="geometry" />
        </mxCell>
        <mxCell id="FCGXPuL1XxX262zVFA1C-2" value="Catu daya" style="rounded=0;whiteSpace=wrap;html=1;" vertex="1" parent="1">
          <mxGeometry x="325" y="150" width="120" height="40" as="geometry" />
        </mxCell>
        <mxCell id="FCGXPuL1XxX262zVFA1C-3" style="edgeStyle=orthogonalEdgeStyle;rounded=0;orthogonalLoop=1;jettySize=auto;html=1;entryX=0;entryY=0.5;entryDx=0;entryDy=0;" edge="1" parent="1" source="FCGXPuL1XxX262zVFA1C-4" target="FCGXPuL1XxX262zVFA1C-6">
          <mxGeometry relative="1" as="geometry" />
        </mxCell>
        <mxCell id="FCGXPuL1XxX262zVFA1C-4" value="cahaya terdeteksi&lt;span style=&quot;color: rgba(0 , 0 , 0 , 0) ; font-family: monospace ; font-size: 0px&quot;&gt;%3CmxGraphModel%3E%3Croot%3E%3CmxCell%20id%3D%220%22%2F%3E%3CmxCell%20id%3D%221%22%20parent%3D%220%22%2F%3E%3CmxCell%20id%3D%222%22%20value%3D%22Catu%20daya%22%20style%3D%22rounded%3D0%3BwhiteSpace%3Dwrap%3Bhtml%3D1%3B%22%20vertex%3D%221%22%20parent%3D%221%22%3E%3CmxGeometry%20x%3D%22325%22%20y%3D%22150%22%20width%3D%22120%22%20height%3D%2240%22%20as%3D%22geometry%22%2F%3E%3C%2FmxCell%3E%3C%2Froot%3E%3C%2FmxGraphModel%3E&lt;/span&gt;&lt;br&gt;Sensor LDR" style="rounded=0;whiteSpace=wrap;html=1;" vertex="1" parent="1">
          <mxGeometry x="170" y="250" width="120" height="50" as="geometry" />
        </mxCell>
        <mxCell id="FCGXPuL1XxX262zVFA1C-5" style="edgeStyle=orthogonalEdgeStyle;rounded=0;orthogonalLoop=1;jettySize=auto;html=1;entryX=0;entryY=0.5;entryDx=0;entryDy=0;" edge="1" parent="1" source="FCGXPuL1XxX262zVFA1C-6" target="FCGXPuL1XxX262zVFA1C-8">
          <mxGeometry relative="1" as="geometry" />
        </mxCell>
        <mxCell id="FCGXPuL1XxX262zVFA1C-23" style="edgeStyle=orthogonalEdgeStyle;rounded=0;orthogonalLoop=1;jettySize=auto;html=1;entryX=0;entryY=0.5;entryDx=0;entryDy=0;" edge="1" parent="1" source="FCGXPuL1XxX262zVFA1C-6" target="FCGXPuL1XxX262zVFA1C-9">
          <mxGeometry relative="1" as="geometry">
            <mxPoint x="460" y="370" as="targetPoint" />
            <Array as="points">
              <mxPoint x="460" y="275" />
              <mxPoint x="460" y="375" />
            </Array>
          </mxGeometry>
        </mxCell>
        <mxCell id="FCGXPuL1XxX262zVFA1C-6" value="Arduino Uno" style="rounded=0;whiteSpace=wrap;html=1;" vertex="1" parent="1">
          <mxGeometry x="320" y="250" width="130" height="50" as="geometry" />
        </mxCell>
        <mxCell id="FCGXPuL1XxX262zVFA1C-7" style="edgeStyle=orthogonalEdgeStyle;rounded=0;orthogonalLoop=1;jettySize=auto;html=1;entryX=0;entryY=0.5;entryDx=0;entryDy=0;" edge="1" parent="1" source="FCGXPuL1XxX262zVFA1C-8" target="FCGXPuL1XxX262zVFA1C-10">
          <mxGeometry relative="1" as="geometry" />
        </mxCell>
        <mxCell id="FCGXPuL1XxX262zVFA1C-8" value="Driver L298 N" style="rounded=0;whiteSpace=wrap;html=1;" vertex="1" parent="1">
          <mxGeometry x="480" y="250" width="120" height="50" as="geometry" />
        </mxCell>
        <mxCell id="FCGXPuL1XxX262zVFA1C-9" value="LCD" style="rounded=0;whiteSpace=wrap;html=1;" vertex="1" parent="1">
          <mxGeometry x="490" y="350" width="120" height="50" as="geometry" />
        </mxCell>
        <mxCell id="FCGXPuL1XxX262zVFA1C-10" value="Motor DC" style="rounded=0;whiteSpace=wrap;html=1;" vertex="1" parent="1">
          <mxGeometry x="640" y="250" width="120" height="50" as="geometry" />
        </mxCell>
        <mxCell id="FCGXPuL1XxX262zVFA1C-14" style="edgeStyle=orthogonalEdgeStyle;rounded=0;orthogonalLoop=1;jettySize=auto;html=1;entryX=0;entryY=0.5;entryDx=0;entryDy=0;" edge="1" parent="1" source="FCGXPuL1XxX262zVFA1C-12" target="FCGXPuL1XxX262zVFA1C-4">
          <mxGeometry relative="1" as="geometry" />
        </mxCell>
        <mxCell id="FCGXPuL1XxX262zVFA1C-22" style="edgeStyle=orthogonalEdgeStyle;rounded=0;orthogonalLoop=1;jettySize=auto;html=1;entryX=0;entryY=0.5;entryDx=0;entryDy=0;" edge="1" parent="1" source="FCGXPuL1XxX262zVFA1C-12" target="FCGXPuL1XxX262zVFA1C-13">
          <mxGeometry relative="1" as="geometry">
            <mxPoint x="150" y="320" as="targetPoint" />
            <Array as="points">
              <mxPoint x="150" y="275" />
              <mxPoint x="150" y="375" />
            </Array>
          </mxGeometry>
        </mxCell>
        <mxCell id="FCGXPuL1XxX262zVFA1C-12" value="Koneksi alat ke sumber tegangan" style="rounded=0;whiteSpace=wrap;html=1;" vertex="1" parent="1">
          <mxGeometry x="20" y="250" width="120" height="50" as="geometry" />
        </mxCell>
        <mxCell id="FCGXPuL1XxX262zVFA1C-24" style="edgeStyle=orthogonalEdgeStyle;rounded=0;orthogonalLoop=1;jettySize=auto;html=1;entryX=0;entryY=0.5;entryDx=0;entryDy=0;" edge="1" parent="1" source="FCGXPuL1XxX262zVFA1C-13" target="FCGXPuL1XxX262zVFA1C-6">
          <mxGeometry relative="1" as="geometry">
            <mxPoint x="300" y="280" as="targetPoint" />
            <Array as="points">
              <mxPoint x="300" y="375" />
              <mxPoint x="300" y="275" />
            </Array>
          </mxGeometry>
        </mxCell>
        <mxCell id="FCGXPuL1XxX262zVFA1C-13" value="Hujan terdeteksi&lt;span style=&quot;color: rgba(0 , 0 , 0 , 0) ; font-family: monospace ; font-size: 0px&quot;&gt;%3CmxGraphModel%3E%3Croot%3E%3CmxCell%20id%3D%220%22%2F%3E%3CmxCell%20id%3D%221%22%20parent%3D%220%22%2F%3E%3CmxCell%20id%3D%222%22%20value%3D%22Catu%20daya%22%20style%3D%22rounded%3D0%3BwhiteSpace%3Dwrap%3Bhtml%3D1%3B%22%20vertex%3D%221%22%20parent%3D%221%22%3E%3CmxGeometry%20x%3D%22325%22%20y%3D%22150%22%20width%3D%22120%22%20height%3D%2240%22%20as%3D%22geometry%22%2F%3E%3C%2FmxCell%3E%3C%2Froot%3E%3C%2FmxGraphModel%3E&lt;/span&gt;&lt;br&gt;Sensor Hujan" style="rounded=0;whiteSpace=wrap;html=1;" vertex="1" parent="1">
          <mxGeometry x="170" y="350" width="120" height="50" as="geometry" />
        </mxCell>
      </root>
    </mxGraphModel>
  </diagram>
</mxfile>
